<svg xmlns="http://www.w3.org/2000/svg" viewBox="0 0 100 100" role="img" aria-label="Lumixo">
  <defs>
    <linearGradient id="lg" x1="0" y1="0" x2="1" y2="1">
      <stop offset="0" stop-color="#A8D5B9"/>
      <stop offset="1" stop-color="#3E8E5A"/>
    </linearGradient>
  </defs>
  <rect width="100" height="100" rx="18" ry="18" fill="#FFFFFF"/>
  <path d="M22 20 h14 a4 4 0 0 1 4 4 v46 a4 4 0 0 0 4 4 h10 v10 h-24 a8 8 0 0 1 -8 -8 z" fill="url(#lg)"/>
  <path d="M56 42 h20 a6 6 0 0 1 6 6 v14 a6 6 0 0 1 -6 6 h-10 l-6 6 v-6 h-4 a6 6 0 0 1 -6 -6 v-14 a6 6 0 0 1 6 -6 z" fill="#BFE0C9"/>
  <circle cx="63" cy="55" r="2.6" fill="#0D3B22"/>
  <circle cx="70" cy="55" r="2.6" fill="#0D3B22"/>
  <circle cx="77" cy="55" r="2.6" fill="#0D3B22"/>
</svg>
